<mxfile host="65bd71144e">
    <diagram id="cLBCj11ThlkR8rny8oWm" name="Page-1">
        <mxGraphModel dx="1751" dy="1613" grid="1" gridSize="10" guides="1" tooltips="1" connect="1" arrows="1" fold="1" page="1" pageScale="1" pageWidth="850" pageHeight="1100" math="0" shadow="0">
            <root>
                <mxCell id="0"/>
                <mxCell id="1" parent="0"/>
                <mxCell id="2" value="" style="rounded=1;whiteSpace=wrap;html=1;gradientColor=none;" parent="1" vertex="1">
                    <mxGeometry x="-19" y="55" width="450" height="495" as="geometry"/>
                </mxCell>
                <mxCell id="3" value="" style="rounded=0;whiteSpace=wrap;html=1;" parent="1" vertex="1">
                    <mxGeometry x="121.87" y="60" width="120" height="125" as="geometry"/>
                </mxCell>
                <mxCell id="4" value="pod1" style="text;html=1;strokeColor=none;fillColor=none;align=center;verticalAlign=middle;whiteSpace=wrap;rounded=0;fontSize=14;" parent="1" vertex="1">
                    <mxGeometry x="147.5" y="60" width="60" height="30" as="geometry"/>
                </mxCell>
                <mxCell id="5" value="eth0" style="rounded=0;whiteSpace=wrap;html=1;fontSize=14;" parent="1" vertex="1">
                    <mxGeometry x="152.5" y="160" width="55" height="20" as="geometry"/>
                </mxCell>
                <mxCell id="6" value="veth11" style="rounded=0;whiteSpace=wrap;html=1;fontSize=14;" parent="1" vertex="1">
                    <mxGeometry x="152.51" y="210" width="58.75" height="20" as="geometry"/>
                </mxCell>
                <mxCell id="7" value="" style="endArrow=none;html=1;fontSize=14;entryX=0.5;entryY=1;entryDx=0;entryDy=0;exitX=0.5;exitY=0;exitDx=0;exitDy=0;" parent="1" source="6" target="5" edge="1">
                    <mxGeometry width="50" height="50" relative="1" as="geometry">
                        <mxPoint x="370" y="250" as="sourcePoint"/>
                        <mxPoint x="420" y="200" as="targetPoint"/>
                    </mxGeometry>
                </mxCell>
                <mxCell id="13" value="&lt;font color=&quot;#ff3333&quot;&gt;tc ingress ebpf&lt;/font&gt;" style="text;html=1;strokeColor=none;fillColor=none;align=center;verticalAlign=middle;whiteSpace=wrap;rounded=0;fontSize=14;" parent="1" vertex="1">
                    <mxGeometry x="211.26" y="205" width="100" height="30" as="geometry"/>
                </mxCell>
                <mxCell id="16" value="arp table" style="text;html=1;strokeColor=none;fillColor=none;align=center;verticalAlign=middle;whiteSpace=wrap;rounded=0;fontSize=14;" parent="1" vertex="1">
                    <mxGeometry x="150" y="90" width="60" height="30" as="geometry"/>
                </mxCell>
                <mxCell id="18" value="Node1" style="text;html=1;strokeColor=none;fillColor=none;align=center;verticalAlign=middle;whiteSpace=wrap;rounded=0;fontSize=14;" parent="1" vertex="1">
                    <mxGeometry x="355" y="520" width="60" height="30" as="geometry"/>
                </mxCell>
                <mxCell id="19" value="ens33" style="rounded=0;whiteSpace=wrap;html=1;" parent="1" vertex="1">
                    <mxGeometry x="150" y="520" width="88" height="30" as="geometry"/>
                </mxCell>
                <mxCell id="20" value="" style="rounded=1;whiteSpace=wrap;html=1;" parent="1" vertex="1">
                    <mxGeometry x="590" y="40" width="490" height="520" as="geometry"/>
                </mxCell>
                <mxCell id="21" value="" style="rounded=0;whiteSpace=wrap;html=1;" parent="1" vertex="1">
                    <mxGeometry x="763.13" y="62.5" width="120" height="125" as="geometry"/>
                </mxCell>
                <mxCell id="22" value="pod2" style="text;html=1;strokeColor=none;fillColor=none;align=center;verticalAlign=middle;whiteSpace=wrap;rounded=0;fontSize=14;" parent="1" vertex="1">
                    <mxGeometry x="790" y="62.5" width="60" height="30" as="geometry"/>
                </mxCell>
                <mxCell id="23" value="eth0" style="rounded=0;whiteSpace=wrap;html=1;fontSize=14;" parent="1" vertex="1">
                    <mxGeometry x="792.5" y="167.5" width="55" height="20" as="geometry"/>
                </mxCell>
                <mxCell id="24" value="veth21" style="rounded=0;whiteSpace=wrap;html=1;fontSize=14;" parent="1" vertex="1">
                    <mxGeometry x="810" y="215" width="58.75" height="20" as="geometry"/>
                </mxCell>
                <mxCell id="25" value="" style="endArrow=none;html=1;fontSize=14;entryX=0.5;entryY=1;entryDx=0;entryDy=0;exitX=0.5;exitY=0;exitDx=0;exitDy=0;" parent="1" source="24" target="23" edge="1">
                    <mxGeometry width="50" height="50" relative="1" as="geometry">
                        <mxPoint x="880" y="250" as="sourcePoint"/>
                        <mxPoint x="930" y="200" as="targetPoint"/>
                    </mxGeometry>
                </mxCell>
                <mxCell id="26" value="&lt;font color=&quot;#ff3333&quot;&gt;tc ingress ebpf&lt;/font&gt;" style="text;html=1;strokeColor=none;fillColor=none;align=center;verticalAlign=middle;whiteSpace=wrap;rounded=0;fontSize=14;" parent="1" vertex="1">
                    <mxGeometry x="868.75" y="205" width="100" height="30" as="geometry"/>
                </mxCell>
                <mxCell id="27" value="arp table" style="text;html=1;strokeColor=none;fillColor=none;align=center;verticalAlign=middle;whiteSpace=wrap;rounded=0;fontSize=14;" parent="1" vertex="1">
                    <mxGeometry x="790" y="90" width="60" height="30" as="geometry"/>
                </mxCell>
                <mxCell id="28" value="Node2" style="text;html=1;strokeColor=none;fillColor=none;align=center;verticalAlign=middle;whiteSpace=wrap;rounded=0;fontSize=14;" parent="1" vertex="1">
                    <mxGeometry x="930" y="535" width="60" height="30" as="geometry"/>
                </mxCell>
                <mxCell id="29" value="ens33" style="rounded=0;whiteSpace=wrap;html=1;" parent="1" vertex="1">
                    <mxGeometry x="728.25" y="535" width="88" height="30" as="geometry"/>
                </mxCell>
                <mxCell id="31" value="&lt;font style=&quot;font-size: 14px;&quot;&gt;10.0.0.2&lt;/font&gt;" style="text;html=1;strokeColor=none;fillColor=none;align=center;verticalAlign=middle;whiteSpace=wrap;rounded=0;" parent="1" vertex="1">
                    <mxGeometry x="61.87" y="70" width="60" height="30" as="geometry"/>
                </mxCell>
                <mxCell id="32" value="&lt;font style=&quot;font-size: 14px;&quot;&gt;10.0.1.2&lt;/font&gt;" style="text;html=1;strokeColor=none;fillColor=none;align=center;verticalAlign=middle;whiteSpace=wrap;rounded=0;" parent="1" vertex="1">
                    <mxGeometry x="700.63" y="77.5" width="60" height="30" as="geometry"/>
                </mxCell>
                <mxCell id="33" value="10.0.1.0/24 via node2IP dev ens33&lt;br&gt;10.0.0.0/24 via cilium_host_ip&amp;nbsp;" style="text;html=1;strokeColor=none;fillColor=none;align=center;verticalAlign=middle;whiteSpace=wrap;rounded=0;fontSize=14;" parent="1" vertex="1">
                    <mxGeometry x="207.5" y="265" width="248.25" height="60" as="geometry"/>
                </mxCell>
                <mxCell id="34" value="10.0.0.0/24 via node1IP dev ens33&lt;br&gt;10.0.1.0/24 via cilium_host_ip" style="text;html=1;strokeColor=none;fillColor=none;align=center;verticalAlign=middle;whiteSpace=wrap;rounded=0;fontSize=14;" parent="1" vertex="1">
                    <mxGeometry x="850" y="280" width="222.5" height="60" as="geometry"/>
                </mxCell>
                <mxCell id="35" value="" style="curved=1;endArrow=classic;html=1;fontSize=14;entryX=0.627;entryY=1.25;entryDx=0;entryDy=0;entryPerimeter=0;fillColor=#d5e8d4;strokeColor=#82b366;strokeWidth=3;" parent="1" source="5" target="23" edge="1">
                    <mxGeometry width="50" height="50" relative="1" as="geometry">
                        <mxPoint x="370" y="310" as="sourcePoint"/>
                        <mxPoint x="420" y="260" as="targetPoint"/>
                        <Array as="points">
                            <mxPoint x="150" y="430"/>
                            <mxPoint x="200" y="630"/>
                            <mxPoint x="750" y="620"/>
                            <mxPoint x="790" y="460"/>
                            <mxPoint x="840" y="360"/>
                            <mxPoint x="830" y="290"/>
                            <mxPoint x="820" y="260"/>
                            <mxPoint x="800" y="230"/>
                        </Array>
                    </mxGeometry>
                </mxCell>
                <mxCell id="36" value="mac-pod1-eth0" style="rounded=0;whiteSpace=wrap;html=1;fontSize=14;" parent="1" vertex="1">
                    <mxGeometry x="200" y="700" width="160" height="40" as="geometry"/>
                </mxCell>
                <mxCell id="37" value="mac-pod1-veth11" style="rounded=0;whiteSpace=wrap;html=1;fontSize=14;" parent="1" vertex="1">
                    <mxGeometry x="360" y="700" width="160" height="40" as="geometry"/>
                </mxCell>
                <mxCell id="38" value="10.0.1.2" style="rounded=0;whiteSpace=wrap;html=1;fontSize=14;" parent="1" vertex="1">
                    <mxGeometry x="680" y="700" width="160" height="40" as="geometry"/>
                </mxCell>
                <mxCell id="39" value="10.0.0.2" style="rounded=0;whiteSpace=wrap;html=1;fontSize=14;" parent="1" vertex="1">
                    <mxGeometry x="520" y="700" width="160" height="40" as="geometry"/>
                </mxCell>
                <mxCell id="40" value="mac-node1-ens33" style="rounded=0;whiteSpace=wrap;html=1;fontSize=14;" parent="1" vertex="1">
                    <mxGeometry x="200" y="820" width="160" height="40" as="geometry"/>
                </mxCell>
                <mxCell id="41" value="mac-node2-ens33" style="rounded=0;whiteSpace=wrap;html=1;fontSize=14;" parent="1" vertex="1">
                    <mxGeometry x="360" y="820" width="160" height="40" as="geometry"/>
                </mxCell>
                <mxCell id="42" value="10.0.1.2" style="rounded=0;whiteSpace=wrap;html=1;fontSize=14;" parent="1" vertex="1">
                    <mxGeometry x="680" y="820" width="160" height="40" as="geometry"/>
                </mxCell>
                <mxCell id="43" value="10.0.0.2" style="rounded=0;whiteSpace=wrap;html=1;fontSize=14;" parent="1" vertex="1">
                    <mxGeometry x="520" y="820" width="160" height="40" as="geometry"/>
                </mxCell>
                <mxCell id="44" value="mac-node1-ens33" style="rounded=0;whiteSpace=wrap;html=1;fontSize=14;" parent="1" vertex="1">
                    <mxGeometry x="200" y="890" width="160" height="40" as="geometry"/>
                </mxCell>
                <mxCell id="45" value="mac-node2-ens33" style="rounded=0;whiteSpace=wrap;html=1;fontSize=14;" parent="1" vertex="1">
                    <mxGeometry x="360" y="890" width="160" height="40" as="geometry"/>
                </mxCell>
                <mxCell id="46" value="10.0.1.2" style="rounded=0;whiteSpace=wrap;html=1;fontSize=14;" parent="1" vertex="1">
                    <mxGeometry x="680" y="890" width="160" height="40" as="geometry"/>
                </mxCell>
                <mxCell id="47" value="10.0.0.2" style="rounded=0;whiteSpace=wrap;html=1;fontSize=14;" parent="1" vertex="1">
                    <mxGeometry x="520" y="890" width="160" height="40" as="geometry"/>
                </mxCell>
                <mxCell id="48" value="&lt;font color=&quot;#ff3333&quot;&gt;tc ingress ebpf&lt;/font&gt;" style="text;html=1;strokeColor=none;fillColor=none;align=center;verticalAlign=middle;whiteSpace=wrap;rounded=0;fontSize=14;" parent="1" vertex="1">
                    <mxGeometry x="238" y="520" width="100" height="30" as="geometry"/>
                </mxCell>
                <mxCell id="49" value="&lt;font color=&quot;#ff3333&quot;&gt;tc ingress ebpf&lt;/font&gt;" style="text;html=1;strokeColor=none;fillColor=none;align=center;verticalAlign=middle;whiteSpace=wrap;rounded=0;fontSize=14;" parent="1" vertex="1">
                    <mxGeometry x="821.25" y="535" width="100" height="30" as="geometry"/>
                </mxCell>
                <mxCell id="51" value="&lt;font color=&quot;#990b0b&quot; style=&quot;font-size: 14px;&quot;&gt;1&lt;/font&gt;" style="text;html=1;strokeColor=none;fillColor=none;align=center;verticalAlign=middle;whiteSpace=wrap;rounded=0;" parent="1" vertex="1">
                    <mxGeometry x="93" y="200" width="60" height="30" as="geometry"/>
                </mxCell>
                <mxCell id="52" value="&lt;font color=&quot;#990b0b&quot;&gt;&lt;span style=&quot;font-size: 14px;&quot;&gt;2&lt;/span&gt;&lt;/font&gt;" style="text;html=1;strokeColor=none;fillColor=none;align=center;verticalAlign=middle;whiteSpace=wrap;rounded=0;" parent="1" vertex="1">
                    <mxGeometry x="35" y="285" width="60" height="30" as="geometry"/>
                </mxCell>
                <mxCell id="53" value="&lt;font color=&quot;#990b0b&quot;&gt;&lt;span style=&quot;font-size: 14px;&quot;&gt;5&lt;/span&gt;&lt;/font&gt;" style="text;html=1;strokeColor=none;fillColor=none;align=center;verticalAlign=middle;whiteSpace=wrap;rounded=0;" parent="1" vertex="1">
                    <mxGeometry x="640" y="285" width="60" height="30" as="geometry"/>
                </mxCell>
                <mxCell id="54" value="&lt;font color=&quot;#990b0b&quot;&gt;&lt;span style=&quot;font-size: 14px;&quot;&gt;6&lt;/span&gt;&lt;/font&gt;" style="text;html=1;strokeColor=none;fillColor=none;align=center;verticalAlign=middle;whiteSpace=wrap;rounded=0;" parent="1" vertex="1">
                    <mxGeometry x="700.63" y="205" width="62.5" height="30" as="geometry"/>
                </mxCell>
                <mxCell id="55" value="1" style="text;html=1;strokeColor=none;fillColor=none;align=center;verticalAlign=middle;whiteSpace=wrap;rounded=0;fontSize=14;fontColor=#990B0B;" parent="1" vertex="1">
                    <mxGeometry x="140" y="700" width="60" height="30" as="geometry"/>
                </mxCell>
                <mxCell id="56" value="&lt;strike&gt;3&lt;/strike&gt;" style="text;html=1;strokeColor=none;fillColor=none;align=center;verticalAlign=middle;whiteSpace=wrap;rounded=0;fontSize=14;fontColor=#990B0B;" parent="1" vertex="1">
                    <mxGeometry x="140" y="825" width="60" height="30" as="geometry"/>
                </mxCell>
                <mxCell id="57" value="4" style="text;html=1;strokeColor=none;fillColor=none;align=center;verticalAlign=middle;whiteSpace=wrap;rounded=0;fontSize=14;fontColor=#990B0B;" parent="1" vertex="1">
                    <mxGeometry x="140" y="890" width="60" height="30" as="geometry"/>
                </mxCell>
                <mxCell id="58" value="mac-pod2-veth21" style="rounded=0;whiteSpace=wrap;html=1;fontSize=14;" parent="1" vertex="1">
                    <mxGeometry x="200" y="1020" width="160" height="40" as="geometry"/>
                </mxCell>
                <mxCell id="59" value="mac-pod2-eth0" style="rounded=0;whiteSpace=wrap;html=1;fontSize=14;" parent="1" vertex="1">
                    <mxGeometry x="360" y="1020" width="160" height="40" as="geometry"/>
                </mxCell>
                <mxCell id="60" value="10.0.1.2" style="rounded=0;whiteSpace=wrap;html=1;fontSize=14;" parent="1" vertex="1">
                    <mxGeometry x="680" y="1020" width="160" height="40" as="geometry"/>
                </mxCell>
                <mxCell id="61" value="10.0.0.2" style="rounded=0;whiteSpace=wrap;html=1;fontSize=14;" parent="1" vertex="1">
                    <mxGeometry x="520" y="1020" width="160" height="40" as="geometry"/>
                </mxCell>
                <mxCell id="62" value="6" style="text;html=1;strokeColor=none;fillColor=none;align=center;verticalAlign=middle;whiteSpace=wrap;rounded=0;fontSize=14;fontColor=#990B0B;" parent="1" vertex="1">
                    <mxGeometry x="140" y="1020" width="60" height="30" as="geometry"/>
                </mxCell>
                <mxCell id="63" value="" style="rounded=1;whiteSpace=wrap;html=1;fontSize=14;fontColor=#990B0B;" parent="1" vertex="1">
                    <mxGeometry x="35" y="310" width="90" height="50" as="geometry"/>
                </mxCell>
                <mxCell id="65" value="&lt;span style=&quot;color: rgb(28, 28, 153);&quot;&gt;cilium_host&lt;/span&gt;" style="text;html=1;strokeColor=none;fillColor=none;align=center;verticalAlign=middle;whiteSpace=wrap;rounded=0;fontSize=14;fontColor=#990B0B;" parent="1" vertex="1">
                    <mxGeometry x="50" y="320" width="60" height="30" as="geometry"/>
                </mxCell>
                <mxCell id="66" value="" style="rounded=1;whiteSpace=wrap;html=1;fontSize=14;fontColor=#990B0B;" parent="1" vertex="1">
                    <mxGeometry x="615.6300000000001" y="315" width="108.75" height="50" as="geometry"/>
                </mxCell>
                <mxCell id="67" value="&lt;span style=&quot;color: rgb(28, 28, 153);&quot;&gt;cilium_host&lt;/span&gt;" style="text;html=1;strokeColor=none;fillColor=none;align=center;verticalAlign=middle;whiteSpace=wrap;rounded=0;fontSize=14;fontColor=#990B0B;" parent="1" vertex="1">
                    <mxGeometry x="640" y="325" width="60" height="30" as="geometry"/>
                </mxCell>
                <mxCell id="72" value="&lt;div style=&quot;color: rgb(0, 0, 0); background-color: rgb(255, 255, 255); font-family: monospace, &amp;quot;Droid Sans Mono&amp;quot;, &amp;quot;monospace&amp;quot;, &amp;quot;Droid Sans Mono&amp;quot;, &amp;quot;monospace&amp;quot;, monospace; line-height: 22px;&quot;&gt;&lt;span style=&quot;color: rgb(128, 0, 0);&quot;&gt;&lt;font style=&quot;font-size: 12px;&quot;&gt;ip neigh add cilium_host_ip lladdr veth11_mac dev eth0&lt;/font&gt;&lt;/span&gt;&lt;/div&gt;" style="text;html=1;strokeColor=none;fillColor=none;align=center;verticalAlign=middle;whiteSpace=wrap;rounded=0;fontSize=14;fontColor=#1C1C99;" parent="1" vertex="1">
                    <mxGeometry y="107.5" width="412" height="30" as="geometry"/>
                </mxCell>
                <mxCell id="76" value="&lt;div style=&quot;color: rgb(0, 0, 0); background-color: rgb(255, 255, 255); font-family: monospace, &amp;quot;Droid Sans Mono&amp;quot;, &amp;quot;monospace&amp;quot;, &amp;quot;Droid Sans Mono&amp;quot;, &amp;quot;monospace&amp;quot;, monospace; line-height: 22px;&quot;&gt;&lt;span style=&quot;color: rgb(128, 0, 0);&quot;&gt;&lt;font style=&quot;font-size: 12px;&quot;&gt;ip neigh add cilium_host_ip lladdr veth11_mac dev eth0&lt;/font&gt;&lt;/span&gt;&lt;/div&gt;" style="text;html=1;strokeColor=none;fillColor=none;align=center;verticalAlign=middle;whiteSpace=wrap;rounded=0;fontSize=14;fontColor=#1C1C99;" parent="1" vertex="1">
                    <mxGeometry x="640" y="120" width="412" height="30" as="geometry"/>
                </mxCell>
                <mxCell id="80" value="&lt;font color=&quot;#009999&quot; style=&quot;font-size: 14px;&quot;&gt;default via cilium_host_ip dev eth0 mtu 1500&lt;br style=&quot;font-size: 14px;&quot;&gt;&amp;nbsp;cilium_host_ip dev eth0 scope link&lt;/font&gt;" style="text;html=1;strokeColor=none;fillColor=none;align=center;verticalAlign=middle;whiteSpace=wrap;rounded=0;fontSize=14;" parent="1" vertex="1">
                    <mxGeometry x="312.87" y="-25" width="350" height="80" as="geometry"/>
                </mxCell>
                <mxCell id="81" value="&lt;font color=&quot;#ff3b14&quot; style=&quot;font-size: 14px;&quot;&gt;pod route rule&lt;/font&gt;" style="text;html=1;strokeColor=none;fillColor=none;align=center;verticalAlign=middle;whiteSpace=wrap;rounded=0;fontSize=14;" parent="1" vertex="1">
                    <mxGeometry x="260" width="105" height="30" as="geometry"/>
                </mxCell>
                <mxCell id="84" value="&lt;font color=&quot;#ff3333&quot;&gt;tc&amp;nbsp; ebpf&lt;/font&gt;" style="text;html=1;strokeColor=none;fillColor=none;align=center;verticalAlign=middle;whiteSpace=wrap;rounded=0;fontSize=14;" parent="1" vertex="1">
                    <mxGeometry x="-38.129999999999995" y="320" width="100" height="30" as="geometry"/>
                </mxCell>
                <mxCell id="85" value="&lt;font color=&quot;#ff3333&quot;&gt;tc&amp;nbsp; ebpf&lt;/font&gt;" style="text;html=1;strokeColor=none;fillColor=none;align=center;verticalAlign=middle;whiteSpace=wrap;rounded=0;fontSize=14;" parent="1" vertex="1">
                    <mxGeometry x="540" y="335" width="100" height="30" as="geometry"/>
                </mxCell>
                <mxCell id="88" value="&lt;font color=&quot;#990b0b&quot;&gt;&lt;span style=&quot;font-size: 14px;&quot;&gt;3&lt;/span&gt;&lt;/font&gt;" style="text;html=1;strokeColor=none;fillColor=none;align=center;verticalAlign=middle;whiteSpace=wrap;rounded=0;" parent="1" vertex="1">
                    <mxGeometry x="80" y="500" width="60" height="30" as="geometry"/>
                </mxCell>
                <mxCell id="89" value="&lt;font color=&quot;#990b0b&quot;&gt;&lt;span style=&quot;font-size: 14px;&quot;&gt;4&lt;/span&gt;&lt;/font&gt;" style="text;html=1;strokeColor=none;fillColor=none;align=center;verticalAlign=middle;whiteSpace=wrap;rounded=0;" parent="1" vertex="1">
                    <mxGeometry x="675" y="505" width="60" height="30" as="geometry"/>
                </mxCell>
                <mxCell id="90" value="mac-node1-ens33" style="rounded=0;whiteSpace=wrap;html=1;fontSize=14;" parent="1" vertex="1">
                    <mxGeometry x="200" y="950" width="160" height="40" as="geometry"/>
                </mxCell>
                <mxCell id="91" value="mac-node2-ens33" style="rounded=0;whiteSpace=wrap;html=1;fontSize=14;" parent="1" vertex="1">
                    <mxGeometry x="360" y="950" width="160" height="40" as="geometry"/>
                </mxCell>
                <mxCell id="92" value="10.0.1.2" style="rounded=0;whiteSpace=wrap;html=1;fontSize=14;" parent="1" vertex="1">
                    <mxGeometry x="680" y="950" width="160" height="40" as="geometry"/>
                </mxCell>
                <mxCell id="93" value="10.0.0.2" style="rounded=0;whiteSpace=wrap;html=1;fontSize=14;" parent="1" vertex="1">
                    <mxGeometry x="520" y="950" width="160" height="40" as="geometry"/>
                </mxCell>
                <mxCell id="94" value="5" style="text;html=1;strokeColor=none;fillColor=none;align=center;verticalAlign=middle;whiteSpace=wrap;rounded=0;fontSize=14;fontColor=#990B0B;" parent="1" vertex="1">
                    <mxGeometry x="140" y="950" width="60" height="30" as="geometry"/>
                </mxCell>
                <mxCell id="95" value="mac-node1-ens33" style="rounded=0;whiteSpace=wrap;html=1;fontSize=14;" parent="1" vertex="1">
                    <mxGeometry x="200" y="760" width="160" height="40" as="geometry"/>
                </mxCell>
                <mxCell id="96" value="mac-node2-ens33" style="rounded=0;whiteSpace=wrap;html=1;fontSize=14;" parent="1" vertex="1">
                    <mxGeometry x="360" y="760" width="160" height="40" as="geometry"/>
                </mxCell>
                <mxCell id="97" value="10.0.1.2" style="rounded=0;whiteSpace=wrap;html=1;fontSize=14;" parent="1" vertex="1">
                    <mxGeometry x="680" y="760" width="160" height="40" as="geometry"/>
                </mxCell>
                <mxCell id="98" value="10.0.0.2" style="rounded=0;whiteSpace=wrap;html=1;fontSize=14;" parent="1" vertex="1">
                    <mxGeometry x="520" y="760" width="160" height="40" as="geometry"/>
                </mxCell>
                <mxCell id="99" value="&lt;font color=&quot;#9d0c0c&quot;&gt;&lt;strike&gt;2&lt;/strike&gt;&lt;/font&gt;" style="text;html=1;strokeColor=none;fillColor=none;align=center;verticalAlign=middle;whiteSpace=wrap;rounded=0;fontSize=14;fontColor=#990B0B;" parent="1" vertex="1">
                    <mxGeometry x="140" y="760" width="60" height="30" as="geometry"/>
                </mxCell>
            </root>
        </mxGraphModel>
    </diagram>
</mxfile>